<svg version="1.2" baseProfile="tiny-ps" xmlns="http://www.w3.org/2000/svg" viewBox="0 0 180 45" width="720" height="180">
	<title>kaufland-logo-vector-svg</title>
	<style>
		tspan { white-space:pre }
		.shp0 { fill: none } 
		.shp1 { fill: #cc2229 } 
	</style>
	<g id="Layer">
		<path id="Layer" class="shp0" d="M0.59 -68.56L180.36 -67.4L179.19 112.17L-0.58 111L0.59 -68.56Z" />
		<path id="Layer" fill-rule="evenodd" class="shp1" d="M146.05 19.2L146.04 21.02C147.38 19.21 148.78 18.71 150.87 18.73C154.88 18.75 157.07 20.55 157.03 24.81L156.99 33.73L151.35 33.69L151.39 26.15C151.4 24.23 150.99 22.84 148.92 22.79C146.8 22.75 146.01 24.03 146.01 26.09L145.96 33.66L140.38 33.63L140.43 19.17L146.05 19.2ZM117.79 33.5L112.17 33.47L112.3 10.03L117.92 10.06L117.79 33.5ZM107.48 23.22L107.4 33.44L101.86 33.41L101.92 23.19L99.97 23.18L99.99 18.94L101.94 18.95L101.95 17.06C102.01 11.6 106.46 8.1 111.45 10.26L111.42 14.78C109.57 13.61 107.55 13.96 107.51 16.57L107.48 18.98L111.39 19.01L111.37 23.24L107.48 23.22ZM82.05 18.84L87.66 18.87L87.62 26.61C87.6 28.67 88.2 29.75 90.41 29.77C92.57 29.78 93.15 28.78 93.16 26.65L93.2 18.9L98.89 18.94L98.84 27.64C98.87 33.42 95.1 33.86 90.39 33.86C85.84 33.81 81.98 32.49 81.98 27.53L82.05 18.84ZM46.34 20.1L54.13 10.95L61.93 10.99L52.19 21.52L62.52 33.2L54.47 33.15L46.4 23.54L46.34 33.11L40.03 33.07L40.15 10.87L46.39 10.9L46.34 20.1ZM137.7 19.15L137.62 33.61L132.08 33.58L132.09 31.98C131.11 32.97 129.27 34.06 126.81 34.04C122.74 34.02 119.26 30.61 119.27 26.28C119.34 21.85 122.88 18.4 127.24 18.59C129.15 18.65 130.81 19.4 132.15 20.67L132.16 19.12L137.7 19.15ZM125.07 26.31C125.06 28.1 126.66 29.57 128.65 29.58C130.62 29.59 132.25 28.14 132.26 26.36C132.27 24.56 130.66 23.1 128.68 23.09C126.7 23.08 125.08 24.52 125.07 26.31ZM177.16 10.4L177.03 33.84L171.54 33.8L171.55 32.2C170.56 33.19 168.73 34.27 166.26 34.26C162.21 34.24 158.72 30.82 158.73 26.49C158.8 22.07 162.34 18.62 166.71 18.81C168.6 18.86 170.28 19.62 171.61 20.89L171.64 10.37L177.16 10.4ZM164.53 26.54C164.52 28.32 166.13 29.79 168.11 29.8C170.08 29.81 171.71 28.36 171.72 26.58C171.73 24.78 170.12 23.32 168.14 23.31C166.17 23.3 164.54 24.74 164.53 26.54ZM79.35 33.28L73.81 33.25L73.82 31.65C72.84 32.65 71 33.73 68.54 33.72C64.47 33.69 60.99 30.28 61 25.95C61.06 21.52 64.61 18.07 68.97 18.26C70.87 18.32 72.54 19.08 73.88 20.34L73.89 18.8L79.43 18.83L79.35 33.28ZM66.8 25.99C66.79 27.78 68.39 29.24 70.38 29.25C72.36 29.26 73.98 27.82 73.99 26.03C74 24.24 72.39 22.78 70.42 22.77C68.43 22.76 66.81 24.2 66.8 25.99ZM176.97 37.12L176.95 40.4L39.99 39.64L40.01 36.36L176.97 37.12ZM37.59 3.32L37.39 39.6L2.54 39.41L2.74 3.13L37.59 3.32ZM3.46 3.84L3.27 38.7L36.68 38.88L36.87 4.03L3.46 3.84ZM35.08 37.07L19.86 36.99L19.94 22.19L35.08 37.07ZM18.22 22.25L18.14 36.98L5.34 36.91L5.42 22.18L18.22 22.25ZM5.51 5.92L18.31 6L18.23 20.72L5.43 20.65L5.51 5.92ZM20.03 6.01L35.26 6.09L19.95 20.73L20.03 6.01Z" />
	</g>
</svg>